<svg version="1.0" xmlns="http://www.w3.org/2000/svg" viewBox="0 0 60.000000 60.000000" fill="grey"
preserveAspectRatio="xMidYMid meet" >
    <g transform="translate(0.000000,60.000000) scale(0.100000,-0.100000)">
    <path d="M307 528 c-12 -9 -28 -71 -57 -218 -22 -113 -40 -208 -40 -212 0 -4
    11 -15 24 -23 19 -12 30 -14 44 -6 16 9 26 45 56 203 21 106 39 201 42 210 5
    16 -27 58 -44 58 -5 0 -16 -6 -25 -12z"/>
    <path d="M88 408 c-82 -70 -88 -76 -88 -100 0 -20 148 -148 172 -148 20 0 48
    26 48 46 0 15 -15 32 -70 77 l-34 29 52 47 c29 26 52 55 52 64 0 15 -35 47
    -52 47 -4 0 -40 -28 -80 -62z"/>
    <path d="M400 450 c-11 -11 -20 -25 -20 -32 0 -6 23 -32 52 -59 l51 -47 -38
    -33 c-74 -65 -78 -74 -49 -103 26 -26 46 -19 127 50 72 61 87 84 69 109 -13
    20 -152 135 -162 135 -6 0 -19 -9 -30 -20z"/>
    </g>
</svg>